<svg width="48" height="48" viewBox="0 0 48 48" fill="none" xmlns="http://www.w3.org/2000/svg">
<rect width="48" height="48" rx="8" fill="#F5F3EE"/>
<path d="M20.6665 27.333L20.6665 23.333" stroke="#0C0C0C" stroke-linecap="round"/>
<path d="M27.3335 27.333L27.3335 23.333" stroke="#0C0C0C" stroke-linecap="round"/>
<path d="M12 16.667H36H35.3333C33.4477 16.667 32.5049 16.667 31.9191 17.2528C31.3333 17.8386 31.3333 18.7814 31.3333 20.667V30.0003C31.3333 31.8859 31.3333 32.8288 30.7475 33.4145C30.1618 34.0003 29.219 34.0003 27.3333 34.0003H20.6667C18.781 34.0003 17.8382 34.0003 17.2525 33.4145C16.6667 32.8288 16.6667 31.8859 16.6667 30.0003V20.667C16.6667 18.7814 16.6667 17.8386 16.0809 17.2528C15.4951 16.667 14.5523 16.667 12.6667 16.667H12Z" stroke="#0C0C0C" stroke-linecap="round"/>
<path d="M20.6668 12.6667C20.6668 12.6667 21.3335 11.333 24.0002 11.333C26.6668 11.333 27.3335 12.6663 27.3335 12.6663" stroke="#0C0C0C" stroke-linecap="round"/>
</svg>
