<svg width="24" height="32" viewBox="0 0 24 32" fill="none" xmlns="http://www.w3.org/2000/svg">
<path d="M3.59985 28.5555C1.30578 26.5605 0.15918 23.775 0.15918 20.2C0.15918 16.625 1.30578 13.8413 3.59985 11.8445C5.89305 9.84942 8.69325 8.85102 11.9996 8.85102C15.3354 8.85102 18.1434 9.84942 20.4218 11.8445C22.7003 13.8404 23.84 16.625 23.84 20.2C23.84 23.775 22.7003 26.5596 20.4218 28.5555C18.1434 30.5515 15.3354 31.549 11.9996 31.549C8.69325 31.549 5.89305 30.5506 3.59985 28.5555ZM9.60931 1.43495C10.2498 2.09015 10.5704 2.88055 10.5704 3.80268C10.5704 4.72655 10.2498 5.50828 9.60931 6.14875C8.96885 6.78922 8.18625 7.10988 7.26325 7.10988C6.33938 7.10988 5.54985 6.79008 4.89551 6.14875C4.24031 5.50828 3.91271 4.72655 3.91271 3.80268C3.91271 2.87968 4.24031 2.09015 4.89551 1.43495C5.55071 0.780617 6.34025 0.45215 7.26325 0.45215C8.18625 0.451283 8.96798 0.779751 9.60931 1.43495ZM16.0651 24.3773C17.0479 23.2906 17.5393 21.8978 17.5393 20.2C17.5393 18.5022 17.0479 17.1104 16.0651 16.0227C15.0823 14.9359 13.726 14.3916 11.9996 14.3916C10.2714 14.3916 8.92378 14.935 7.95571 16.0227C6.98765 17.1104 6.50405 18.5022 6.50405 20.2C6.50405 21.8978 6.98765 23.2906 7.95571 24.3773C8.92291 25.465 10.2714 26.0084 11.9996 26.0084C13.7268 26.0084 15.0823 25.465 16.0651 24.3773ZM19.1704 1.43495C19.8108 2.09015 20.1306 2.88055 20.1306 3.80268C20.1306 4.72655 19.81 5.50828 19.1704 6.14875C18.5299 6.78922 17.7473 7.10988 16.8243 7.10988C15.9004 7.10988 15.1109 6.79008 14.4566 6.14875C13.8014 5.50828 13.4738 4.72655 13.4738 3.80268C13.4738 2.87968 13.8014 2.09015 14.4566 1.43495C15.1118 0.780617 15.9013 0.45215 16.8243 0.45215C17.7482 0.451283 18.5299 0.779751 19.1704 1.43495Z" fill="#0C0C0C"/>
</svg>
